<svg enable-background="new 0 0 80 80" height="80" viewBox="0 0 80 80" width="80" xmlns="http://www.w3.org/2000/svg"><circle cx="39.6" cy="39.6" fill="#231d37" opacity=".2" r="39.6"/><path d="m66.8 68.4c-1.1-.3-2.6-.6-6.1-1.7-6.6-2-7.9-2.9-8.5-3.4-2.9-2.4-3.8-5.3-4-5.8-.3-1-1.1-3.7 0-6.4.5-1.2 1.2-1.7 1.8-2.4 1.8-2 2.3-4.6 3.2-9.2.7-3.9 1.4-7.9.5-13.1-.5-3-1-5.6-3.2-8-2-2.3-4.4-3.1-5.7-3.6-4.8-1.7-9-.4-10.6.2-1.4.5-3.6 1.3-5.4 3.5-1.9 2.2-2.2 4.6-2.6 8.1-.7 5.7.1 10 .8 13.9 1 5.2 2 6.8 2.4 7.3 1.1 1.5 1.9 1.9 2.3 3.4.6 2.2-.5 4.1-1.4 6.2-.4.9-1.6 3.6-4.2 5.7-2 1.6-3.1 1.4-9 3.3-2.1.7-3.7 1.3-5 1.8 7.2 6.8 16.9 11 27.5 11s20.1-4.1 27.2-10.8z" fill="#808080"/><path d="m29.5 47.8c1.1 1.5 1.9 1.9 2.3 3.4.6 2.2-.5 4.1-1.4 6.2-.4.8-1.4 3-3.4 4.9 1.2 1.2 2.6 2.5 4.4 3.7 3.3 2.2 6.5 3.2 8.5 3.7 2.2-.5 5.4-1.5 8.9-3.7 1.4-.9 2.6-1.8 3.6-2.7 0 0-.1 0-.1-.1-2.9-2.4-3.8-5.3-4-5.8-.3-1-1.1-3.7 0-6.4.5-1.2 1.2-1.7 1.8-2.4 1.8-2 2.3-4.6 3.2-9.2.1-.5.2-1 .3-1.4-.1-.1-.1-.2-.2-.3-1-1.5-1-3.4-.9-7.3 0-1.7.1-3.1-.8-4.7-.4-.7-.9-1.3-1.3-1.6 0 .5.1 1.1.1 1.6-.9.3-2.1.7-3.7 1.1-2 .4-6.4 1.2-11.1-.4-1.1-.4-2.6-1-4.2-2.1 0 0-1.2 1.3-1.5 1.5-1 1.1-1 2.3-1.3 4.6-.7 5.4-1.3 6.3-1.6 6.7-.1.2-.3.3-.4.5.2 1 .3 2 .5 2.9.9 5.2 2 6.8 2.3 7.3z" fill="#e6e6e6"/></svg>