<svg enable-background="new 0 0 55 36" viewBox="0 0 55 36" xmlns="http://www.w3.org/2000/svg"><path d="m47.5 3.1h-8.5c1 1.1 1.5 2.5 1.5 4v21c0 1.5-.6 2.9-1.5 4h8.5c2.2 0 4-1.8 4-4v-21c0-2.2-1.8-4-4-4z" fill="#fff" opacity=".4"/><path d="m47 34.6h-39c-3.9 0-7-3.1-7-7v-20c0-3.9 3.1-7 7-7h39c3.9 0 7 3.1 7 7v20c0 3.9-3.1 7-7 7z" fill="none" stroke="#3f0" stroke-miterlimit="10" stroke-width=".5"/><path d="m34.5 3.1h-8.5c1 1.1 1.5 2.5 1.5 4v21c0 1.5-.6 2.9-1.5 4h8.5c2.2 0 4-1.8 4-4v-21c0-2.2-1.8-4-4-4z" fill="#fff" opacity=".7"/><path d="m21.5 32.1h-13.5c-2.2 0-4-1.8-4-4v-21c0-2.2 1.8-4 4-4h13.5c2.2 0 4 1.8 4 4v21c0 2.2-1.8 4-4 4z" fill="#fff"/><path d="m30.5 22.8c-.4 0-.8-.3-.8-.8v-8.8c0-.4.3-.8.8-.8s.8.3.8.8v8.8c-.1.4-.4.8-.8.8z"/><path d="m34.9 18.4h-8.8c-.4 0-.8-.3-.8-.8s.3-.8.8-.8h8.8c.4 0 .8.3.8.8s-.4.8-.8.8z"/></svg>