<svg enable-background="new 0 0 55 36" viewBox="0 0 55 36" xmlns="http://www.w3.org/2000/svg"><path d="m46.6 35.2h-39c-3.9 0-7-3.1-7-7v-20c0-3.9 3.1-7 7-7h39c3.9 0 7 3.1 7 7v20c0 3.8-3.2 7-7 7z" fill="none" stroke="#3f0" stroke-miterlimit="10" stroke-width=".5"/><path d="m46.6 32.7h-39c-2.2 0-4-1.8-4-4v-21c0-2.2 1.8-4 4-4h39c2.2 0 4 1.8 4 4v21c0 2.2-1.8 4-4 4z" fill="#fff"/><path d="m17.8 18.2c-.7 0-1.4.3-1.8.8-.5.5-.8 1.3-1 2.3h3.2v.5h-3.3v.7.2.6h2.9v.5h-2.8c.1.9.4 1.7.9 2.2s1.1.8 1.9.8c.6 0 1.2-.1 1.8-.4v.6c-.3.1-.7.2-1 .3s-.6.1-.9.1c-1 0-1.8-.3-2.4-.9s-1-1.5-1.2-2.6h-1.2v-.5h1.1c0-.2 0-.4 0-.7v-.7h-1.1v-.5h1.2c.2-1.2.6-2.1 1.2-2.7s1.4-1 2.3-1c.4 0 .7 0 1 .1s.6.2 1 .4l-.3.6c-.4-.5-.9-.7-1.5-.7z" opacity=".4"/><path d="m26.2 14.6c-1 0-1.9.4-2.6 1.1-.7.8-1.1 1.8-1.4 3.3h4.5v.7h-4.6v.9.2.8h4v.7h-4c.2 1.3.6 2.3 1.3 3s1.6 1.1 2.7 1.1c.9 0 1.7-.2 2.6-.6v.8c-.5.2-.9.3-1.4.4-.4.1-.8.1-1.3.1-1.4 0-2.5-.4-3.3-1.3-.8-.8-1.4-2.1-1.6-3.7h-1.6v-.7h1.5c0-.2 0-.6 0-1v-.9h-1.5v-.5h1.7c.2-1.6.8-2.9 1.6-3.8s1.9-1.4 3.3-1.4c.5 0 1 .1 1.4.2s.9.3 1.3.5l-.4.8c-.6-.5-1.4-.7-2.2-.7z" opacity=".7"/><path d="m37.3 10.1c-1.4 0-2.6.5-3.5 1.5s-1.6 2.5-1.9 4.4h6.1v1h-6.2v1.3.3 1.1h5.5v1h-5.4c.2 1.8.8 3.1 1.8 4.1s2.2 1.5 3.7 1.5c1.2 0 2.4-.3 3.5-.8v1.1c-.7.3-1.3.5-1.8.6-.6.1-1.1.2-1.7.2-1.9 0-3.3-.6-4.5-1.7-1.1-1.1-1.9-2.8-2.2-5h-2.2v-1h2.1c0-.3 0-.8 0-1.4v-1.2h-2.1v-1h2.2c.3-2.2 1.1-3.9 2.2-5.2 1.2-1.3 2.6-1.9 4.4-1.9.7 0 1.4.1 2 .2s1.2.4 1.8.7l-.5 1c-1.1-.6-2.2-.8-3.3-.8z"/></svg>