<svg enable-background="new 0 0 72 36" viewBox="0 0 72 36" xmlns="http://www.w3.org/2000/svg"><path d="m64.5 34.8h-56c-3.9 0-7-3.1-7-7v-20c0-3.9 3.1-7 7-7h56c3.9 0 7 3.1 7 7v20c0 3.8-3.1 7-7 7z" fill="none" stroke="#3f0" stroke-miterlimit="10" stroke-width=".5"/><g fill="#fff"><path d="m43 32.2h-34.5c-2.2 0-4-1.8-4-4v-21c0-2.2 1.8-4 4-4h34.5c2.2 0 4 1.8 4 4v21c0 2.3-1.8 4-4 4z"/><g opacity=".4"><path d="m65.2 5.3c-.4 0-.6.2-.8.5s-.3.9-.3 1.6.1 1.3.3 1.6.4.5.8.5.7-.2.8-.5c.2-.3.3-.9.3-1.6s-.2-1.3-.3-1.6c-.2-.3-.5-.5-.8-.5z"/><path d="m65 3.2h-6.5c.7.7 1.1 1.7 1.4 2.7l1.3-1h.5v5h-.7v-3.6c0-.3 0-.6 0-.8 0 0-.1.1-.2.2s-.3.3-.8.7l-.1-.4c0 .4.1.8.1 1.2v21c0 1.5-.6 2.9-1.5 4h6.5c2.2 0 4-1.8 4-4v-21c0-2.2-1.8-4-4-4zm1.4 6.1c-.3.4-.7.6-1.2.6s-.9-.2-1.2-.7c-.3-.4-.4-1.1-.4-1.9 0-.9.1-1.5.4-1.9s.7-.6 1.2-.6 1 .2 1.2.7c.3.4.4 1.1.4 1.9 0 .9-.1 1.5-.4 1.9z"/></g><path d="m54 3.2h-6.5c.7.7 1.1 1.7 1.4 2.7l1.3-1h.5v5h-.7v-3.6c0-.3 0-.6 0-.8 0 0-.1.1-.2.2s-.3.3-.8.7l-.1-.4c0 .4.1.8.1 1.2v21c0 1.5-.6 2.9-1.5 4h6.5c2.2 0 4-1.8 4-4v-21c0-2.2-1.8-4-4-4zm1.3 6.3c-.3.3-.8.4-1.4.4s-1-.1-1.3-.3v-.5c.2.1.4.2.6.2.2.1.5.1.7.1.4 0 .7-.1.9-.3s.3-.5.3-.8c0-.7-.4-1-1.3-1-.2 0-.5 0-.9.1l-.3-.2.2-2.3h2.5v.5h-2l-.1 1.5c.3-.1.5-.1.8-.1.5 0 .9.1 1.2.4s.5.6.5 1.1c.1.5-.1.9-.4 1.2z" opacity=".7"/></g><path d="m40.8 9.9h-3.3v-.5l1.3-1.3c.4-.4.7-.7.8-.9s.2-.3.3-.5.1-.3.1-.5c0-.3-.1-.5-.2-.6-.2-.2-.4-.2-.7-.2-.2 0-.4 0-.6.1s-.4.2-.6.4l-.3-.4c.5-.4 1-.6 1.5-.6s.8.1 1.1.4c.3.2.4.6.4 1 0 .3-.1.6-.3.9s-.5.7-1 1.2l-1.1 1.1h2.6z"/><path d="m44.8 7.4c0 .9-.1 1.5-.4 1.9s-.7.6-1.2.6-.9-.2-1.2-.7c-.3-.4-.4-1.1-.4-1.9 0-.9.1-1.5.4-1.9s.7-.6 1.2-.6 1 .2 1.2.7c.3.4.4 1.1.4 1.9zm-2.7 0c0 .7.1 1.3.3 1.6s.4.5.8.5.7-.2.8-.5c.2-.3.3-.9.3-1.6s-.2-1.3-.3-1.6c-.2-.3-.4-.5-.8-.5s-.6.2-.8.5-.3.9-.3 1.6z"/><path d="m35.6 5.3c-.5 0-.8.3-1 1h1.2v.3h-1.3v.1.2.1h1.1v.3h-1.1c.2.3.3.5.5.7s.4.2.7.2.5-.1.8-.2v.4c-.2.1-.5.2-.8.2-.4 0-.7-.1-.9-.3s-.4-.5-.5-1h-.4v-.3h.4v-.1-.1-.2h-.4v-.3h.4c.1-.4.2-.8.5-1s.5-.4.9-.4c.3 0 .6.1.9.2l-.2.3c-.4 0-.6-.1-.8-.1z"/><path d="m14 24.5c.1-.1.2-.1.3 0 3.3 1.9 7 2.9 10.9 2.9 2.6 0 5.2-.5 7.7-1.5.1 0 .2-.1.3-.1.1-.1.2-.1.3-.1.2-.1.4 0 .5.1.1.2.1.3-.1.4-.2.2-.5.4-.9.6-1.1.7-2.4 1.2-3.8 1.6-1.5.4-2.9.6-4.2.6-2.1 0-4-.4-5.9-1.1s-3.5-1.8-5-3.1c-.1 0-.1-.1-.1-.2 0 0 0 0 0-.1zm6.1-5.7c0-.9.2-1.7.7-2.4s1.1-1.1 1.9-1.5c.7-.3 1.6-.5 2.7-.7.4 0 .9-.1 1.8-.2v-.3c0-.9-.1-1.4-.3-1.7-.3-.4-.7-.6-1.3-.6h-.2c-.4 0-.8.2-1.1.4s-.5.6-.6 1c-.1.3-.2.4-.4.5l-2.3-.3c-.2-.1-.3-.2-.3-.4v-.1c.2-1.2.8-2.1 1.7-2.6.9-.6 1.9-.9 3.1-1h.5c1.5 0 2.7.4 3.6 1.2.1.1.3.3.4.4.1.2.2.3.3.4s.1.3.2.5.1.4.1.5 0 .3.1.6v.5 4.8c0 .3 0 .7.1 1s.2.5.3.6.2.3.5.6c.1.1.1.2.1.3s-.1.2-.2.3c-1.1 1-1.7 1.5-1.8 1.6-.2.1-.4.1-.6 0-.2-.2-.4-.3-.5-.5-.1-.1-.2-.3-.3-.3-.1-.1-.2-.2-.3-.4s-.2-.3-.3-.4c-.7.8-1.5 1.3-2.2 1.5-.5.1-1 .2-1.7.2-1 0-1.9-.3-2.5-.9-.9-.5-1.2-1.4-1.2-2.6zm3.4-.4c0 .5.1.9.4 1.2s.6.5 1 .5h.2s.1 0 .2 0c.6-.1 1-.5 1.3-1.1.1-.3.3-.5.3-.8.1-.3.1-.5.1-.7s0-.5 0-.9v-.6c-.8 0-1.4.1-1.8.2-1.1.3-1.7 1.1-1.7 2.2zm8.4 6.5c0-.1.1-.1.1-.2.3-.2.7-.4 1-.5.5-.1 1-.2 1.5-.2h.4c.6.1 1 .2 1.1.3s.1.2.1.4v.1c0 .5-.1 1-.4 1.6s-.6 1.1-1.1 1.5c-.1.1-.1.1-.2.1h-.1c-.1 0-.1-.1-.1-.2.5-1.2.7-2 .7-2.4 0-.1 0-.3-.1-.3-.1-.2-.5-.2-1.1-.2-.2 0-.5 0-.8 0s-.6.1-.9.1c-.1 0-.1 0-.1-.1z"/></svg>