<svg enable-background="new 0 0 209 209" viewBox="0 0 209 209" xmlns="http://www.w3.org/2000/svg"><g fill="#3f0"><path d="m86.2 139.3c-1.6 0-3.1-.5-4.3-1.7l-28.4-26.3c-2.5-2.4-2.7-6.3-.3-9 2.3-2.5 6.3-2.7 9-.3l24.2 22.4 59.9-54c2.6-2.3 6.6-2.1 9 .4 2.3 2.6 2.1 6.6-.4 9l-64.2 57.9c-1.4 1.1-3 1.6-4.5 1.6z"/><path d="m104.1 207.4c-56.9 0-103.2-46.4-103.2-103.3s46.3-103.2 103.2-103.2 103.3 46.3 103.3 103.3c0 56.8-46.3 103.2-103.3 103.2zm0-199.5c-53.1 0-96.2 43.1-96.2 96.2s43.2 96.3 96.3 96.3 96.3-43.2 96.3-96.3-43.3-96.2-96.4-96.2z"/></g></svg>