<svg enable-background="new 0 0 65 65" viewBox="0 0 65 65" xmlns="http://www.w3.org/2000/svg" xmlns:xlink="http://www.w3.org/1999/xlink"><linearGradient id="a" gradientUnits="userSpaceOnUse" x1="31.96399999998" x2="32.318" y1="64.03599999996" y2="4.03599999996"><stop offset="0" stop-color="#e5e5e5"/><stop offset="1" stop-color="#fafafa"/></linearGradient><linearGradient id="b" gradientTransform="matrix(20.0321 0 0 28.0161 666.2065 9159.5908)" gradientUnits="userSpaceOnUse" x1="-31.6296" x2="-31.6296" y1="-326.2362" y2="-325.2362"><stop offset="0" stop-color="#ffb700"/><stop offset="1" stop-color="#ff7f00"/></linearGradient><path d="m20.9 3.9h22.5c10.4 0 18.8 8.4 18.8 18.8v22.5c0 10.4-8.4 18.8-18.8 18.8h-22.5c-10.4 0-18.8-8.4-18.8-18.8v-22.5c0-10.4 8.4-18.8 18.8-18.8z" fill="url(#a)" stroke="#bcbcbc" stroke-width=".5"/><path d="m40.9 19.8h-16.5c-1 0-1.8.8-1.8 1.7v24.5c0 1 .8 1.8 1.7 1.8h16.5c1 0 1.8-.8 1.8-1.7v-24.6c0-1-.7-1.7-1.7-1.7 0-.1 0-.1 0 0zm-5.7 17.2h-8.9c-.4 0-.7-.3-.7-.7s.3-.7.7-.7h8.9c.4 0 .7.3.7.7s-.3.7-.7.7zm3.7-5.2h-12.6c-.4 0-.7-.3-.7-.7s.3-.7.7-.7h12.6c.4 0 .7.3.7.7.1.4-.3.7-.7.7zm0-5.2h-12.6c-.4 0-.7-.3-.7-.7s.3-.7.7-.7h12.6c.4 0 .7.3.7.7s-.3.7-.7.7z" fill="url(#b)"/><circle cx="55.5" cy="7.8" fill="#302b63" r="6.8"/><path d="m56.3 5.4c-.4 0-.8.1-1.1.4s-.5.8-.6 1.2h2.2v.7h-2.2v.2.3.2h1.9v.7h-1.9c.1.9.8 1.6 1.7 1.5.5 0 1-.1 1.4-.3v1c-.5.2-1 .3-1.5.3-.7 0-1.3-.2-1.9-.6-.5-.5-.8-1.1-.9-1.8h-.7v-.8h.6v-.2-.1-.3h-.6v-.8h.7c.1-.7.4-1.4.9-1.9s1.2-.7 1.9-.7c.6 0 1.2.1 1.7.4l-.4.9c-.3-.1-.8-.3-1.2-.3z" fill="#fff"/></svg>